<mxfile host="app.diagrams.net" modified="2023-05-19T11:59:02.150Z" agent="Mozilla/5.0 (X11; Linux x86_64) AppleWebKit/537.36 (KHTML, like Gecko) Chrome/94.0.4606.61 Safari/537.36 OPR/80.0.4170.16" version="21.3.2" etag="B3KHaegOFB1Ec0uc9Zfh" type="github">
  <diagram name="Page-1" id="P0QLWcZtlII9Cf0TS4LI">
    <mxGraphModel>
      <root>
        <mxCell id="0" />
        <mxCell id="1" parent="0" />
      </root>
    </mxGraphModel>
  </diagram>
</mxfile>
